<?xml version="1.0" encoding="utf-8"?>
<!-- Generator: Adobe Illustrator 24.1.1, SVG Export Plug-In . SVG Version: 6.00 Build 0)  -->
<svg version="1.1" id="Calque_1" xmlns="http://www.w3.org/2000/svg" xmlns:xlink="http://www.w3.org/1999/xlink" x="0px" y="0px"
	 viewBox="0 0 211.9 394.9" style="enable-background:new 0 0 211.9 394.9;" xml:space="preserve">
<style type="text/css">
	.st0{fill:#F97544;}
	.st1{fill:#F97544;stroke:#000000;stroke-miterlimit:10;}
	.st2{fill:#F97544;stroke:#FFFFFF;stroke-width:0.25;stroke-miterlimit:10;}
</style>
<g>
	<g>
		<path class="st0" d="M16.6,69c-0.5,0.3-1,0.5-1.5,0.8c-1.5,1.2-2.4,3-3.3,4.8c-0.3,0.6-0.8,1-1.2,1.5C10.5,76,10.5,76,10.4,76
			c0.3-0.5,0.5-1.1,0.7-1.6c0.5-0.8,0.7-1.6,1.2-2.4c0.8-1.5,1.9-2.8,2.9-4.2c0.1-0.1,0.3-0.3,0.3-0.4c-0.2-1.2,0.4-2,1.3-2.7
			c0.6-0.5,0.6-1-0.1-1.4c-0.3-0.2-0.7-0.5-1.4-0.8c0.8-0.2,1.2-0.3,1.7-0.5c0.5-0.2,1-0.5,1.4-0.6c0.5-0.1,1.1-0.7,1.6-0.1
			c1-0.2,2.1-0.3,3.1-0.6c0.5-0.1,0.7-0.8,1.1-1.2c-0.1-0.2-0.2-0.5-0.3-0.7c0.1-0.1,0.1-0.1,0.2-0.2c1-0.3,1.2-0.4,1-1.2
			c-0.3-1.1,0.5-1.9,0.7-2.7c0.1-0.4,0.8-0.6,1.1-1.1c0.6-0.9,1-1.9,1.5-2.8c-0.2-0.3-0.3-0.6-0.5-1c0.2,0,0.3-0.1,0.5,0
			c1,0.4,1,0.4,1.4-0.6c0.1-0.2,0.1-0.5,0.2-0.5c1-0.4,1.2-1.5,1.9-2.1c0.6-0.5,1.2-0.9,1.9-1.4c0.6-0.4,0.8-0.9,0.5-1.6
			c-0.3,0.1-0.6,0.3-0.9,0.4c-0.1-0.1-0.1-0.2-0.1-0.3c0.3-0.4,0.8-0.8,0.2-1.5c-0.9,0.3-1.8,0.6-2.2,1.6c0,0.1-0.1,0.1-0.1,0.1
			c-1.4,0.3-1.5,1.8-2.5,2.6c-0.1-0.1-0.3-0.1-0.3-0.1c-0.4-0.1-1,0.1-1-0.5c-0.1-0.5,0.3-0.7,0.6-0.9c0.6-0.4,1.1-0.7,1.2-1.6
			c0.1-0.6,1-0.9,1-1.6c0.8,0.1,1.2-0.8,2-1c0.6-0.1,0.8-0.5,1.1-1c0.1-0.3,0.2-0.5,0.6-0.5c0.2,0,0.5-0.5,0.8-0.9
			c0.2,0.1,0.4,0.2,0.6,0.3c0.6,0.2,1.2-0.1,1.3-0.7c0.1-0.8,0.5-1.1,1-1.5c0.4-0.3,0.6-1,0.8-1.4c0.6-0.2,1.1-0.4,1.5-0.7
			c0.1-0.1,0-0.6,0-1c1-0.5,2.1-0.9,3.2-1.4c0.1-1.4,0.1-2.6,0.2-3.9c0.3-0.1,0.6-0.1,0.9-0.1c0.3-0.1,0.7-0.4,0.7-0.6
			c0.1-0.3-0.2-0.8-0.5-1c-0.4-0.3-0.9-0.5-1.4-0.7c-0.3-0.2-0.7-0.4-1-0.7c-1.7-0.3-3.3-0.1-4.9,0.6c-0.3,0.1-0.7,0.1-1.1,0
			c-0.3-0.1-0.6-0.2-1-0.3c0.5-0.8,0.5-0.7,1.4-0.7c0.7-0.1,1.5-0.3,2.2-0.7c0.2-0.1,0.2-0.5,0.3-0.9c-0.8,0.4-1.4,0.7-2,1
			c-0.1-0.1-0.1-0.2-0.1-0.3c0.6-0.5,1.2-1,1.8-1.5c0.2-0.1,0.5-0.1,0.7-0.1c0.5,0.1,1,0.1,1.4,0.2c1.5,0.4,2.4-0.3,3.2-1.4
			c0.3-0.5,0.6-1,0.9-1.5c-0.3-0.1-0.5-0.2-0.6-0.3c0-0.1,0-0.2,0.1-0.2c1.1-0.7,2-1.4,3-2.2c0.7-0.6,1.2-1.6,2.5-1.2
			c-0.1-0.3-0.1-0.6-0.1-0.8c1-0.5,1.9-0.9,2.9-1.2c0.6-0.2,1.2-0.3,1.7-0.4c1.8-0.1,3.7-0.1,5.4-0.3c1.4-0.2,2.5,0.1,3.7,0.3
			c1.4,0.3,2.8,0.2,4.2-0.3c0.2-0.1,0.3-0.4,0.5-0.8c-0.1,0,0.1-0.1,0.1,0c1.6,0.5,3.1-0.2,4.6-0.7c0.6-0.2,1.4-0.3,2.1-0.1
			c-0.5,0.3-0.7,0.5-1.2,0.8c0.3,0.2,0.5,0.4,0.6,0.4c1-0.1,1.9-0.1,2.9-0.3c-0.2-0.6-1.1-0.6-0.6-1.3c0.1-0.1-0.2-0.5-0.4-0.6
			c-0.5-0.3-1-0.6-1.5-1c0.7,0.1,1.4,0.3,2,0.7c0.7,0.5,1.4,0.9,2.3,0.3c0.5-0.3,1.2,0,1.8,0.1c2.3,0.4,4.6,0.8,7,1
			c1.8,0.2,3.6,0.7,5.4,1.1c0.6,0.1,1.1,0.7,1.8,0.3c0.2-0.1,0.6,0.3,1,0.6c0.1-0.2,0.3-0.3,0.3-0.5c0.1-0.5,0.6-0.5,0.7-0.3
			c0.6,0.7,1.4,0.7,2.1,1.1c0.5,0.2,0.9,0.5,1.4,0.7c0.3,0.1,0.6,0.2,1,0.3c0.2-0.4,0.3-0.7,0.5-1.1c0.1,0.1,0.3,0.1,0.3,0.1
			c1,0.6,1.9,1.2,2.9,1.9c0.9,0.5,1.8,0.9,2.8,1.2c1.1,0.3,2.1,1,3.2,1.5c0.2,0.1,0.3,0.2,0.5,0.1c0.7-0.3,1.2,0.2,1.7,0.5
			c0.8,0.3,1.5,0.7,2.4,0.5c0.7-0.1,1.5,0.2,2.1,0.5c1.1,0.5,2.1,1.1,3.2,1.5c0.6,0.2,1.3-0.1,1.9-0.4c-0.2,0-0.3,0-0.5,0
			c0.2-0.8,0.2-0.8,0.8-0.6c0.7,0.3,1.4,0.5,2,0.9c0.5,0.3,1.2,0.2,1.5,0.9c0,0.1,0.5-0.1,0.7-0.1c0-0.7-1.4-0.5-0.7-1.6
			c0.6,0.3,1.2,0.4,1.4,1.2c0.1,0.1,0.3,0.3,0.5,0.3c1.6,0.4,3.1,1.1,4.5,1.9c0.4,0.2,0.9,0.3,1.4,0.5c0.3,0.1,0.6,0.2,0.8,0.5
			c0.6,0.7,1.2,1.1,2.1,0.9c0.2,0.9,0.5,1.8,1.2,2.3c0.3,0.2,0.5,0.7,0.7,1.1c0.6,1.2,1.5,2,2.8,2.7c0.6,0.3,0.9,1,1.4,1.5
			c0.6,0.7,1.2,1.3,1.9,1.9c0.2,0.2,0.5,0.3,0.7,0.2c0.8-0.1,1.1,0.3,1.4,0.9c0.2,0.6,0.4,1.1,1.1,1.2c0.2,0.1,0.3,0.4,0.5,0.6
			c0.5,0.7,0.9,1.5,1.5,2.4c0.5-1.5-0.5-2.4-0.6-3.7c0.2,0.2,0.4,0.3,0.5,0.5c0.5,0.9,1.3,1.7,1.5,2.8c1.3,0.8,1.6,2.3,2.6,3.4
			c0.3,0.3,0.6,0.6,0.4,1.2c-0.1,0.3,0.1,0.8,0.3,1.1c0.5,0.7,1.2,1.2,1,2.1c-0.1,0.2,0.3,0.5,0.5,0.6c1.2,1.1,2.5,2.1,3.8,3.2
			c0.3,0.3,0.8,0.3,1.4,0.5c0.5,1,1.4,1.6,2.3,2.3c0.2,0.1,0.5,0.3,0.6,0.2c0.8-0.1,1.2,0.4,1.8,1c-0.5-0.1-0.7-0.1-1.1-0.2
			c0.6,1.6,2.9,2,2.8,3.8c1.3,1.6,2.5,3.1,3.6,4.6c0.8,1.1,1.6,2.3,2.4,3.4c0.4,0.6,0.7,1.2,1,1.9c0.1,0.2,0,0.5,0,0.7
			c-0.1,1.3,0.1,2.5,1,3.6c0.7,0.8,1.4,1.8,2.2,2.6c0.3,0.3,0.8,0.5,1.2,0.7c0.7,0.3,0.7,0.7,0.1,1.4c0.6,1,1.2,2,1.9,3.1
			c-0.5,0.6-0.8,1.2-0.2,1.9c0.2,0.3,0,1-0.2,1.5c-0.2,0.5-0.2,0.9,0.1,1.4c0.2,0.2,0.1,0.6,0.2,0.9c0.1,0.4,0,0.9,0.2,1.2
			c0.5,0.9,0.5,1.9,0.5,2.8c0,0.5,0.1,0.9,0.6,1.2c0.4,0.3,0.6,0.8,0.7,1.3c0.1,0.2-0.1,0.6-0.2,0.9c1.2,1.5,2.8,2.6,4.6,3.5
			c0.1,0.1,0.3,0.2,0.6,0.5c-1,0.1-1.5-0.3-2-0.6c-0.8-0.5-1.6-0.6-2.4-0.4c0.1,0.7-0.1,1.6,0.3,2c0.5,0.5,0.6,1.1,0.8,1.8
			c0.5,1.1,0.8,2.1,1.1,3.2c0.2,0.6,0.2,1.2,0.8,1.8c0.2,0.2,0.2,0.7,0.2,1.1c-1.4,0-2.1-0.3-2.4-1.1c-0.2-0.5-0.1-0.7,0.8-1.2
			c-0.4-0.9-0.7-1.8-1.2-2.7c-0.5-0.8-1-1.6-1.5-2.4c-0.5,1.2-0.3,1.9,0.8,2.7c-0.1,0.5-0.3,1.1-0.5,1.6c0.5,0.4,0.8,0.9,0.1,1.5
			c0.4,1.1,0.8,2.1,1.2,3.2c0.1,0.2,0.2,0.5,0.3,0.6c1,0.6,0.9,1.5,1,2.5c-0.3,0.1-0.7,0.1-1,0.2c-0.3,1.1,0,1.8,0.5,2.7
			c0.6,1.1,1.1,2.5,1.4,3.8c0.2,0.9,0.5,1.8,0.8,2.6c0.2,0.3,0.3,0.7,0.5,1.1c-1.2-0.5-1.4-0.7-1.9-3.2c-0.1,0-0.2-0.1-0.2-0.1
			c-0.2,0.6-1.3,0.3-1.2,1.2c0.1,0.6,0.1,1.2,0.3,1.8c0.3,1.1,0.3,2.1,0.5,3.2c0.2,1.1,0.5,2.1,1.5,2.8c0.2,0.1,0.4,0.3,0.5,0.5
			c0.2,0.7,0.6,0.8,1.2,1c0.2,0.1,0.3,0.5,0.6,0.8c-0.6-0.2-1.1-0.5-1.4-0.5c-0.7,0.3-1.5-0.2-2,0c-1,0.5-1.9,0-2.9,0.1
			c-0.6,0.1-1,0.9-0.5,1.4c0.6,0.6,0.6,1.1,0.6,1.8c0,0.3,0.1,0.8,0.3,1c0.9,1,0.1,1.6-0.3,2.7c-0.4-1.4-0.7-2.4-1.1-3.7
			c-0.2,1.1-0.1,2.1,0.3,3.2c0.1,0.1,0.1,0.2,0.1,0.3c-0.3,1,0.3,1.7,0.9,2.4c-0.4,0.2-0.7,0.5-1.1,0.7c-0.2,1.3,0.2,2.4,1.2,3.3
			c0.5,0.4,0.1,1.2,0.9,1.4c0.1,1.1,1,1.4,1.6,2c-0.5,0.7-0.9-0.1-1.5,0c0.9,1.6,2.5,2.7,3.1,4.6c-0.6-0.3-1.1-0.6-1.7-0.9
			c0,0.5,0,0.7,0,1.1c-1-0.5-0.2-1.1-0.3-1.5c-1.1-1.2-2.2-2.3-3.1-3.4c-0.5-0.6-1-0.7-1.7-0.5c-0.5,0.1-1,0.1-1.4,0.1
			c-0.6-0.7-1.1-1.4-1.6-1.9c-0.5,0.1-0.8,0.2-1.2,0.2c-0.1,0.5,0.8,0.7,0.5,1.4c-0.1,0.1,0.2,0.5,0.4,0.6c0.5,0.5,1,1,1.4,1.6
			c0.5,0.9,1.1,1.4,2.1,1.7c0.5,0.2,0.9,0.8,1.4,1.2c-0.7,0.9-1.2,0.1-1.6-0.1c-0.6,0.3-0.5,0.7-0.2,1.1c0.8,1.4,0.6,2.9-0.4,4
			c-0.3,0.3-0.6,0.5-0.3,1c0.1,0.1-0.2,0.3-0.3,0.5c-0.1,0.3-0.1,0.6-0.3,1c-0.8-0.1-1.7-0.3-2.3-1.2c-0.1-0.1-0.3-0.2-0.5-0.3
			c0,0.2,0,0.3,0,0.5c-0.1,0.2-0.2,0.5-0.1,0.7c0.1,0.3,0.2,0.5,0.3,0.7l0,0c-1,0.1-0.8-0.7-1-1.2c-0.1-0.5-0.1-1.1-0.1-1.6
			c-0.3-0.1-0.5-0.2-0.7-0.3c-0.6-0.3-0.9-0.1-1.1,0.5c-0.2,0.5-0.4,1.1-0.7,1.5c-0.3,0.5-0.8,0.9-1.2,1.3c-0.1,0.1-0.5-0.1-0.6-0.1
			c-0.1-0.1-0.1-0.4-0.1-0.5c0.7-0.9,0.5-2.1,1.2-2.9c0.2-0.2,0.2-0.8,0.1-1.1c-0.2-0.7-0.5-1.5-0.8-2.3c-0.3,0-0.8,0-1.1,0
			c-0.2,0.7-0.4,1.2-0.5,1.9c-0.1,0.7-0.6,1.5,0.3,2.2c0.3,0.2,0.3,0.8,0.5,1.4c-0.1,0.1-0.2,0.2-0.3,0.2c-1.6,1.1-1.8,2.8-1.9,4.5
			c-0.1,1.9,0.1,3.9,0.1,5.8c0,0.2-0.1,0.5,0.1,0.5c1.2,1,0.3,2.5,1,3.6c0.3,0.7-0.3,1.4-1.2,1.8c0.1-1.4,0.6-2.8-0.1-4.1
			c-0.6-1.2-1.2-2.4-1.7-3.6c-0.8,0.3-1.1,0.8-1,1.7c0.1,0.3,0.2,0.6,0.2,0.9c0.1,0.4,0.2,0.8,0.1,1.2c-0.5,2.1-0.6,4.2-1.7,6.2
			c-0.5,1-0.7,2-0.5,3.1c0.1,0.6,0.2,1,0.1,1.6c-0.1,0.8-0.2,1.5-0.8,2c-0.2,0.2-0.3,0.6-0.3,0.8c-0.1,1.5-0.1,2.9-0.1,4.4
			c-0.1,1.1-0.3,2.3-0.3,3.4c-0.1,1.2-0.4,2.4-0.6,3.6c-0.1,0.7-0.1,1.4-0.5,2.1c-0.6,1.5-0.6,3-1.1,4.5c-0.2,0.5-0.1,1.1-0.1,1.6
			c0,0.3,0.1,0.6,0,0.8c-0.6,1.3-0.4,2.8-0.7,4.1c-0.1,0.3-0.3,0.5-0.4,0.8c-0.3,0.7-0.8,1.4-0.5,2.3c0.1,0.3-0.1,0.8-0.1,1.1
			c-0.1,0.5-0.1,0.9-0.2,1.2c-0.1,0.2,0.1,0.5,0,0.6c-0.8,0.9-0.6,2-0.8,3c-0.2,0.7-0.2,1.3-0.6,2c-0.3,0.5-0.1,1.2-0.2,1.9
			c-0.2,0.2-0.6,0.3-0.6,0.6c-0.1,0.9-0.5,1.6-0.8,2.5c-0.1,0.3-0.1,0.7-0.1,1.1c-0.7-0.1-1,0.2-1,0.9c0.1,0.7-0.2,1.1-0.5,1.7
			c-0.5,0.7-0.6,1.6-0.8,2.4c-0.1,0.3-0.2,0.5-0.3,0.8c-0.3,0-0.5,0-0.6,0c-0.8,1.6-1.7,3-2.1,4.6c-0.3,0.9-0.8,1.6-0.9,2.7
			c-0.1,1.1-0.6,1.3-1.8,1.3c-0.1,0.6-0.3,1.1-0.4,1.7c-0.1,0.7-0.2,1.5-0.5,2.3c-0.2,0.6-0.6,0.9-1.5,0.7c0.1,1.6-1,2.8-1.4,4.2
			c-0.8,0.1-1.5,0.1-2.4,0.2c0.2,0.5,0.3,0.7,0.5,1c-1.2,0.3-1.9,1.2-2.4,2.3c-0.2,0.3-0.2,0.7-0.3,1.1c-0.1,0.3-0.2,0.8-0.4,1.1
			c-1.1,0.9-2.1,1.6-3.3,2.5c-0.2,0.1-0.5,0.1-0.7,0.3c-0.3,0.1-0.6,0.3-0.6,0.5c-0.4,1.2-1.5,1.8-2.3,2.5c-0.2,0.2-0.6,0.2-0.8,0.3
			c-0.3,0.1-0.7-0.3-1.1,0.1c-0.4,0.5-1,0.8-1,1.6c-0.1,0.5-0.3,0.9-0.4,1.5c-0.3-0.3-0.6-0.5-1-0.7c-1,1-1.2,2.3-2,3.6
			c-0.3-0.5-0.5-0.9-0.8-1.2c-0.6,0.1-1.3,0.4-2,0c-0.2-0.1-0.5,0-0.7,0.1c-0.9,0.7-1.9,1.1-3,1.1c0.1,0.7-0.3,1-1,1.1
			c-0.2,0.1-0.5,0-0.6,0c-0.9-0.1-1.7,0.1-2.5,0.6c-1,0.6-2.1,1.1-3.2,1.5c-0.6,0.3-1.2,0.6-2,0.1c-0.7-0.5-1.5-0.2-2.3,0.1
			c-0.3,0.1-0.7,0.5-1.1-0.1c-0.1-0.1-0.6-0.1-0.8,0c-1.1,0.4-2.4,0.2-3.5,1c-0.3,0.2-0.7,0.1-1.1,0.1c-0.5-0.1-0.8-0.2-1.3-0.3
			c0.1-0.2,0.1-0.5,0.2-0.8c-0.2,0-0.4-0.1-0.5-0.1c-1,0.9-2.2,0.6-3.3,0.9c-1.3,0.4-2.1-0.5-3.2-0.7c-0.3-0.1-0.6-0.3-1.1-0.2
			c-0.2,0.1-0.5-0.2-0.7-0.3c-0.6-0.5-1.2-0.6-1.9-0.6c-0.1,0-0.3,0.1-0.3,0.1c-0.2,1.1-1.7,0.3-2,1.4c0,0.1-0.1,0.1-0.2,0.1
			c-0.3-0.2-0.5-1-1.2-0.8c-0.5,0.1-1,0.1-1.6,0.1c-0.6-0.5-0.6-1.6-1.6-1.9c-0.8-0.2-1.6-0.1-2.4,0.3c-0.3-0.3-0.5-0.7-0.7-0.7
			c-1.9-0.3-2.7-2.1-4.1-3.1c-0.3-0.2-0.3-0.6-0.6-0.9c-0.3-0.3-0.8-0.5-1-0.8c-0.3-0.7-0.8-0.3-1.3-0.3c-1.2,0.1-1.4,0-1.6-1.2
			c-0.1-0.2-0.1-0.3-0.2-0.7c0.5-0.1,0.8-0.1,1.2-0.2c0.2-1.2,0.1-1.6-1-1.6c-1.7,0.1-2.4-1.2-3.4-2.1c-0.2-0.2-0.4-0.6-0.5-0.5
			c-0.8,0.2-1-1.1-1.9-0.6c-0.5,0.2,0.2,1.2-0.8,1.2c-0.1-0.4-0.2-0.8-0.3-1.2c0.3-0.3,0.6-0.6,0.8-0.9c0-0.1-0.1-0.1-0.1-0.1
			c-0.3,0.1-0.6,0.3-1,0.5c-0.6-0.3-1.4-0.7-2-1.1c0.2-0.6,0.5-1.1,0.6-1.8c-0.5-0.2-0.8-0.3-1.3-0.5c-0.1,0.5-0.2,0.7-0.3,1.1
			c-0.2-0.1-0.5,0-0.5-0.1c-0.3-0.7-0.5-1.5-0.7-2.1c-0.5-0.1-1-0.3-1.4-0.5c0-0.1,0-0.1,0-0.2c0.5-0.1,0.8-0.3,1.4-0.4
			c0.5-0.9-0.5-1-1-1.5c-0.7,0.5-1.5,0.9-2.3,1.4c0-0.7-0.2-1.3,0.1-1.6c0.8-1,0.3-2,0.2-3c-0.1-0.3,0-0.5,0-0.7
			c-0.4-0.1-0.8-0.1-1-0.3s-0.5-0.6-0.5-0.9c0-0.8-0.3-1.2-1-1.6c-0.3-0.2-0.6-0.7-0.8-1.1c0.5-0.4,0.6-0.8,0.2-1.4
			c-0.1-0.1-0.2-0.3-0.2-0.5c0.3-1.2-0.5-2-1.2-2.8c-0.6-0.6-1.2-1.2-1-2.3c0.1-0.7-0.1-1.4-0.6-1.9c-0.5-0.4-0.8-0.9-1.2-1.5
			c-0.1,0.9,0.6,1.2,0.8,1.8c-0.2,0.2-0.3,0.4-0.5,0.7c-0.1-0.1-0.2-0.2-0.2-0.3c-0.1-0.2,0-0.6-0.1-0.6c-1-0.5-0.6-1.2-0.6-2
			c0.1-1.2,0.1-2.4-0.3-3.6c-0.1-0.6-0.3-1.1-1.2-1c0.5-0.7,0.8-1.5,0.3-1.9c-0.8-0.5-1-1.2-0.9-2c0-0.1,0-0.2-0.1-0.2
			c-1-0.2-0.6-1.2-1-1.8c-0.4-0.6-1-1.2-0.6-2.2c0.1-0.2-0.1-0.5-0.2-0.7c-0.3-0.6-0.3-1.1-0.2-1.7c0.1-0.7-0.2-1.5-0.4-2.1
			c-0.3-1.2-0.4-2.4-0.4-3.7c-0.1-1.4-0.5-2.7-0.7-4c-0.1-0.6-0.2-1.1-0.2-1.8c-0.8-0.8-1-1.9-1-3c0-1.6-0.5-2.9-1.7-4
			c0.2-0.5,0.5-1,0.6-1.4c-0.2-1-0.3-1.9-0.5-2.8c-0.1-0.6-0.2-1.1-0.3-1.6c-0.2-0.7-0.3-1.2-0.5-1.9c-0.3-1.2-0.5-2.5-0.8-3.7
			c-0.1-0.5-0.7-0.7-1.1-1.1c-0.1-0.6-0.3-1.2-0.5-1.9c-0.2-1.3-0.3-2.6,0-4c0.3-1.2-0.1-2.4-0.5-3.6c-0.1-0.5-1.1-0.7-1.6-0.4
			c-0.3,0.2-0.6,0.3-1,0.3c-0.6-0.1-0.8,0.4-0.6,1.1c0.5,1.1,0.8,2.3,1.7,3.2c0.1,0.1,0.2,0.3,0.3,0.6c-1.2,0-1.7-0.8-2.1-1.6
			c-0.5-0.9-1-1.8-1.4-2.7c-0.1-0.1-0.1-0.2-0.1-0.3c0.2-1-0.1-1.8-0.7-2.5c-0.2-0.2-0.3-0.5-0.3-0.7c-0.5-1.4-0.8-2.8-1.9-3.9
			c-0.1-1.4-1.2-2.5-1.1-4c0-0.7-0.3-1.3-0.5-2.1c-0.6,1.1-1,1.9-1.5,2.8c-0.7-0.1-1-0.4-0.9-1.1c0.1-0.6,0.2-1.1,0.2-1.7
			c0.1-1-0.1-2-0.8-3c-0.3,0.8-0.5,1.4-0.8,2.1c-0.5-0.7-0.8-1.1-1.1-1.6c-0.7,0.2-0.7,0.7-0.7,1.2c-1.4-0.7-1.3,1-2.3,1.1
			c-0.1-0.2-0.3-0.3-0.4-0.6c-0.5-1.1-0.8-2.1-1.2-3.2c-0.3-0.6-0.6-1.2-0.2-1.9c0.1-0.1,0-0.3-0.1-0.5c-0.8,0.4-1.6,0.8-2.5,1.2
			c-0.1,0.5-0.1,1-0.1,1.6c-0.2,0.1-0.5,0.2-0.6,0.2c-0.6-0.1-1,0-1.5,0.4c-0.1,0.1-0.3-0.1-0.4-0.1l0,0c0.1-0.2,0.1-0.3,0.1-0.6
			c-0.3,0.1-0.5,0.1-0.9,0.2c0.5-1.2,0.5-2.7,1.5-3.8c-0.8,0.2-1.4,0.3-1.9,0.4c-0.2-0.9-0.1-1.6,0.6-2c-0.1-0.5-0.3-0.8-0.3-1.2
			c0.1-2.3,0.2-4.6,0.3-6.8c0.1-0.5,0.2-0.9,0.3-1.4c0.3-1.2,0.3-2.4-0.9-3.3c-0.5-0.3-0.8-0.9-0.8-1.6c0-0.2,0.1-0.4-0.1-0.5
			c-1.4-1.6-1.1-3.6-1.4-5.5c-0.6-3-0.3-6.1,0.4-9c0.1-0.6,0.1-1.1,0.1-1.7c0.1-0.7,0.2-1.4,0.5-1.9c0.7-1.1,0.8-2.4,1-3.6
			c0.3-1.6,0.2-3.2,0.3-4.9c0.1-0.7,0-1.5-0.6-2c-0.2-0.2-0.1-0.7-0.1-1c0.3-1.9,0.6-3.7,1-5.5c0.2-0.7,0.3-1.6,0.8-2.2
			c0.7-1.1,0.6-2.4,0.8-3.6c0.1-0.5,0.1-1,0.1-1.5c0.1-1,0.1-2-0.3-2.9c0.2-0.2,0.5-0.3,0.5-0.5c0.3-1.4,0.5-2.8,0.7-4.4
			c-1.5,0.9-1.2,2.7-2.3,3.7c0.5,0.5,0.8,0.9,1.2,1.3c-0.6-0.1-1.4-0.1-2.1-0.2c-0.1,0.3-0.3,0.7-0.6,1.1c-0.5-1.5-0.1-3.8,0.7-5.1
			c1.1-1.6,1.8-3.5,2.3-5.4c0.1-0.2,0.1-0.5,0.3-0.6c0.7-0.3,0.7-1.1,1-1.8c0.3-0.6,0.4-1.2,1-1.6c0.1-0.1,0.3-0.3,0.3-0.5
			c0.1-1.3,1.2-2.2,1.5-3.4c0.1-0.4,0.2-0.8,0.3-1.2c0.3,0.1,0.6,0.2,1,0.3c0.8-1.1,1.6-2.1,2.8-2.5c0.5-0.9,0.8-1.7,1.4-2.7
			c-0.3-0.1-0.6-0.5-1-0.5c-0.5,0-1,0.1-1.4,0.5c-0.5,0.3-0.7,0.9-1,1.4c-0.3,0.4-0.5,0.7-1.1,0.5c0.2-1,1.1-1.9,0.6-3.2
			C17.5,67.1,16.5,67.7,16.6,69L16.6,69z M140.3,139.1c0.5,0.2,1,0.6,1.4,0.6c1.6,0.1,3.2,0.1,4.9,0.3c3.2,0.3,6.2,1.1,9.2,2
			c1.7,0.5,3.3,1.2,5,2c0.5,0.2,0.8,0.1,1.2-0.1c0-0.5,0-1,0-1.5c-0.1-1.1-0.2-2.1-0.1-3.2c0.1-1.6-0.1-3-0.4-4.6
			c-0.3-1.4-0.8-2.8-0.3-4.4c0.2-0.6,0.2-1.2,0-1.8c-0.3-1.1-0.3-2.3-0.5-3.4c-0.1-0.5-0.1-1.1-0.3-1.5c-0.2-0.6-0.5-1.1-0.8-1.6
			c-0.4-0.6,0.3-0.7,0.5-0.7c-1.4-2.1-1.2-4.6-2.1-6.9c-1-0.6-1.1-1-0.6-2c0.2-0.4,0.2-0.7-0.3-0.9c-0.2-0.1-0.3-0.2-0.6-0.5
			c0.8-0.7,0.6-1.5,0.4-2.1c-0.2-0.8-0.5-1.6-0.8-2.4c-0.3-1-0.6-2-0.8-3c-0.1-0.8-0.4-1.3-0.8-1.6c-0.1-0.6,0.1-1.1-0.2-1.4
			c-0.5-0.7,0.5-0.7,0.4-1.3c-0.1-0.1-0.3-0.2-0.5-0.3c0.1-0.2,0.2-0.5,0.2-0.6c-0.6-0.5-1.1-1-1.6-1.5c0.4-0.8,0.4-0.8-0.2-1.1
			c-0.1,0.2-0.1,0.4-0.1,0.6c-0.4-0.2-0.8-0.3-1.1-0.6c-0.2-0.2-0.5-0.7-0.3-0.8c0.6-0.7,0.1-1.1-0.5-1.2c-0.5-0.1-0.8-0.3-0.7-0.7
			c0.4-1.5-0.5-2.1-1.4-2.8c-0.1-0.1-0.3-0.2-0.5-0.3c-0.3,0.4-0.5,0.7-0.7,1c0.4,0.2,0.8,0.2,0.7,0.7c-0.6,0-1.2,0-1.7,0
			c-0.1-0.2-0.2-0.3-0.3-0.5c-0.2-0.3-0.2-0.9-0.7-0.7c-0.3,0.1-0.5,0.5-0.6,0.9c-0.1,0.5-0.2,1.1-0.7,1.3c-0.1,0.1-0.1,0.3-0.2,0.5
			c-0.5,1.2-1.2,2.3-2.1,3.2c-0.1,0.1-0.1-0.1-0.3-0.1c0.1-0.3,0.1-0.5,0.2-1.1c-0.8,0.8-1.5,0.4-2.4,0c-0.1,0.7-0.1,1.1-0.1,1.6
			l0.1-0.1c-0.7,0.3-1.7,0.3-2.1,0.8c-0.8,1.1-1.7,2.1-2.4,3.2c-0.6,0.9-1.1,1.5-2.2,1.4c-0.5,1.2-1.1,2.1-2.3,2.9
			c-0.1-1.1,0.6-1.6,1-2.3c0.5-0.8,0.8-1.6,1.8-1.9c-0.1-0.3-0.1-0.6-0.2-0.9c0.3-0.2,0.5-0.3,0.7-0.5c-0.1-0.9,0-1.7,0.5-1.8
			c0.7-0.2,1-0.9,1.5-1.2c0.8-0.5,0.8-0.6,0.5-1.7c-0.5,0.1-1,0.2-1.7,0.4c0.5-1,0.7-1.8,1.1-2.7c-0.3-0.2-0.6-0.3-1.1-0.6
			c-0.1,0.4-0.2,0.7-0.3,1c-1.5,0.3-2,0.3-2.7-0.3c0.9-0.2,1.5-0.7,1.7-1.6c0.1-0.1,0.2-0.3,0.3-0.3c1.2-0.3,1.2-1.2,1.1-2.3
			c-1.2-0.3-1.8-0.1-2.3,0.7c-0.5,0.6-0.8,1.2-1.2,1.9c-0.2,0.3-0.4,0.5-0.6,0.8c-0.5-1.2,0.6-2,0.6-3c-0.9,0.6-1.7,1.3-2.5,2
			c-0.5,0.5-1.4,0.7-1.5,1.6c0,0-0.1,0.1-0.2,0.1c-0.2-0.2-0.5-0.3-0.9-0.7c0.8-0.9,1.6-1.6,2.4-2.4c0.6-0.7,1.2-1.4,2.1-1.6
			c0.1-0.1,0.2-0.2,0.3-0.3c0.3-1.1,0.8-2.3,0.8-3.4c0-0.2-0.1-0.5-0.3-0.7c-0.5,0.5-0.8,0.9-1.2,1.2c-0.3,0.3-0.5,0.6-0.8,0.7
			c-0.4,0.1-0.9,0.2-1.2,0s-0.8-0.6-0.5-1.2c0.3-0.5,0.6-1.1,0.5-1.5c-0.1-1,0.2-1.7,0.6-2.5c0.1-0.2,0-0.4-0.1-0.8
			c-0.8,0.6-1.5,1.1-2,1.6c-1.1,1.4-2.8,1.9-4.1,3c-0.1,0.1-0.5-0.1-0.8-0.1c0.1-0.3,0.2-0.5,0.3-0.7c0.1-0.2,0.1-0.3,0.2-0.5
			c-0.6,0.1-1,0.3-1.5,0.3c-0.5-0.1-1-0.3-1.6-0.5c0.2-0.3,0.3-0.5,0.6-1c-1.1,0.2-2,0.3-2.9,0.5c-0.3,0.1-0.7,0.2-0.9,0
			c-0.9-0.8-2.1-0.2-3.1-0.8c-0.1-0.1-0.3,0.1-0.3,0.1c-0.7,0.7-1.6,0.1-2.4,0.3c-0.1,0.1-0.3-0.2-0.5-0.3s-0.3-0.1-0.6-0.1
			c0.1,0.6,0.1,1,0.2,1.5c-0.4,0-0.6,0-0.8,0c-0.1-0.3-0.1-0.5-0.2-0.7c-0.7,0.1-1.2,0.3-1.9,0.4c-0.8,0.1-1.5,0.2-2.3,0.5
			c-0.8,0.3-1.7,0.9-2.7,0.6c-0.1-0.1-0.3,0.1-0.5,0.1c-0.6,0.3-1.3,0.6-1.9,0.8c-0.8,0.3-1.4,0.9-2.4,0.7c-1.1-0.1-2,1-3.2,1
			c-0.1,0-0.1,0.1-0.1,0.1c-1.1,0.6-2.3,1.1-3.5,1.2c-0.3,0-0.6,0.1-0.8,0.1c-0.2,0.3-0.3,0.8-0.6,0.9c-0.4,0.2-0.8,0.3-0.8,0.8
			c0,0.1-0.5,0.3-0.6,0.3c-0.7-0.1-0.8,0.7-1.4,0.7c0.1,0.8-0.6,0.8-0.9,0.9c-0.2,0.7-0.5,1.4-0.6,1.9c-0.6,0.2-1.2,0.2-1.5,0.6
			c-0.5,0.6-1,0.7-1.7,0.2c0.1,0.3,0.1,0.6,0.1,0.7c-1.2,0-1.6,1.1-2.3,1.9c-0.3-0.1-0.7-0.1-1.2-0.2c-0.1,1.2-1.1,1.2-2.1,1.6
			c0.5,0.1,0.6,0.2,0.7,0.2c0.2,0,0.3,0,0.6,0c-0.3,0.3-0.5,0.6-0.7,0.7c-0.3,0.2-0.6,0.5-1,0.6c-0.3,0.1-0.6-0.1-0.8-0.2
			c0.2-0.6,0.4-1.1,0.6-1.6c-1.5-0.3-1.4,1.1-2,1.6c-0.5-0.1-0.8-0.2-1.4-0.3c0.2,0.3,0.3,0.5,0.4,0.7C70.8,99,70.3,99,69.7,99
			c0.7,0.3,0.2,0.7,0.1,1c0.2,0.2,0.5,0.3,0.7,0.5c-0.8,0.5-1.9,0.3-2.3,1.4c-0.1,0.1-0.5,0.1-0.6,0.1c-0.3-0.1-0.6-0.2-0.8-0.3
			c-0.3,0.6-0.6,1.1-0.8,1.6c0.1,0.1,0.3,0.3,0.4,0.5c-0.3,0.4-0.6,0.7-0.8,1.1c-0.8-0.2-0.1-1.3-1.1-1.5c-0.2,0.7-0.5,1.3-0.6,2
			c-0.6,2.2-0.6,4.5-0.7,6.7c-0.1,2.4,0.1,4.8,0.2,7.3c0.1,1-0.1,2,0.4,3c0.1,0.3,0,0.7,0.1,1.1c0,0.3,0,0.5,0.1,0.7
			c0.7,2.1,1.4,4.4,2.1,6.5c0.3,0.7,0.6,1.5,1,2.1c0.5,0.9,1.1,1.6,1.7,2.4c0.8,1.1,1.7,1.8,2.8,2.4c0.8,0.5,1.8,0.3,2.6,0.4
			c1.8,0.2,3.5,0.6,5.3,0.8c0.7,0.1,1.4,0.5,2.1-0.1c0.2-0.1,0.6,0,0.8,0.2c0.8,0.6,1.7,1.1,2.4,1.8c0.3,0.4,0.7,0.6,1.1,0.7
			c0.6,0.2,1.2,0.5,1.7,0.9c0.4,0.3,0.8,0.7,1.2,1c-0.2,0.3-0.3,0.5-0.5,0.7c0.7,0.7,1.4,1.4,2.1,2c1.9,1.5,3.6,3.2,5.1,5
			c1.4,1.5,1.7,3.3,1.6,5.3c-0.2,3-0.6,6-1.5,8.9c-0.3,1-0.7,1.9-1,2.8c-0.3,1.1-0.7,2.1-1.4,3.1c-0.3,0.3-0.6,0.7-0.6,1
			c-0.2,1.1-1,1.9-1.6,2.8c-0.5,0.6-0.8,1.2-1.4,1.8c-1.2,1.4-2.4,2.8-3.8,4c-2.1,1.8-4.6,2.8-7.1,3.8c-3.8,1.5-7.7,1.5-11.7,0.7
			c-4.2-0.8-7.9-2.9-11.1-5.7c-2.9-2.5-5.1-5.5-6.9-9c-0.8-1.6-1.5-3.4-1.9-5.1c-0.8-3.7-1.4-7.5-1.5-11.2c-0.1-1.5-0.7-2.6-1.9-3.5
			c-0.5-0.3-0.8-0.8-1.3-1.3c-0.3,0-0.8,0.1-1.2,0c-0.4-0.1-0.7-0.3-0.6-0.7c0.1-0.3,0.5-0.5,0.7-0.6c0.2-0.1,0.4,0.1,0.6,0.1
			c0.8,0.2,1.5,0.1,2.1-0.7c0.6-0.9,1.5-1.6,2.7-1.8c0.2-0.1,0.5,0,0.6-0.1c1.6-0.5,3.2-1.1,3.8-3.1c-0.7-0.1-1.5,0.5-2.1-0.4
			c1-1.5,2-2.8,3.6-3.6c0.1-0.1,0.3,0.1,0.6,0.2c-0.4,0.5-0.7,1-1.1,1.5c1.9,0,3.2-0.8,4.4-2c0.8,0.5,1.6,0.4,2.4-0.1
			c0.8-0.6,1.7-0.8,2.7-0.7c1,0.1,1.5-0.3,1.9-1.2c-0.3-0.7-0.6-1.4-0.9-2c-0.6-1.1-1.1-2.3-1.7-3.4c-0.4-0.7-0.8-1.4-1.2-2.2
			c-0.3-0.8-0.5-1.6-0.7-2.5c-0.5-2.1-1.1-4.2-0.9-6.3c0.1-1.2-0.2-2.1-1.2-2.8c-0.4,1.9-0.8,3.8-0.6,5.7c0.1,0.7,0,1.4-0.1,2.1
			c-0.1,0.9-0.1,1.8,0.3,2.6c0.3,0.8,0.7,1.6,0.3,2.5c0.3,0.2,0.6,0.3,0.7,0.4c-0.2,0.6-0.4,1.1-0.6,1.9c-1.7-3.6-2.6-7.1-2.7-11
			c-0.5-0.1-0.8-0.2-1.4-0.2c-0.3-1.1-0.5-2.1-0.7-3.3c-1,0.7,0.2,1.9-0.8,2.4c-0.2-0.3-0.3-0.9-0.6-0.9c-0.5-0.1-0.5-0.3-0.7-0.7
			c-0.6-1.1-0.3-2.2-0.1-3.2c0.2-0.7,0.1-1.2,0-2c-1,0.5-1.9,0.9-1.6,2.2c0.1,0.1-0.3,0.4-0.5,0.5c-0.3,0.1-0.7,0-1,0.1
			c-0.1,0-0.1,0.1-0.2,0.2c0.2,0.2,0.5,0.4,0.5,0.5c-0.2,0.5-0.3,0.9-0.5,1.2c-0.8,0.1-0.6-1-1.2-1.2c-0.3,0.7-0.5,1.5-0.8,2.3
			c-0.2-0.1-0.4-0.1-0.8-0.2c0.5,0.6,0.8,1.1,0.3,1.6c-0.2-0.2-0.4-0.4-0.5-0.6c-0.4,0.7-0.7,1.5-1.1,2.3c0.3,0.1,0.5,0.2,0.8,0.3
			c0.2-0.4,0.3-0.8,0.5-1.2c0.1,0.6,0.1,1.3-0.2,1.5c-0.5,0.3-0.5,0.7-0.7,1.1c-0.3,0.6,0.1,1,0.3,1.5c-0.3,0.3-0.7,0.5-1.2,0.9
			c0.6,0.1,0.7,0.1,1,0.1c-0.1,0.5-0.1,0.8-0.2,1.2c-0.3-0.2-0.6-0.3-0.9-0.5c-0.1,0.1-0.1,0.1-0.1,0.2c0.2,0.2,0.3,0.5,0.3,0.5
			c-0.2,0.8-0.4,1.5-0.5,2c0.3,0.6,0.5,1.1,0.8,1.8c-1.4-0.2-0.9,0.9-1.4,1.2c-0.8,0.7-0.1,1.3-0.1,1.9c-0.2,0.3-0.5,0.6-0.5,0.8
			c0.1,0.9-0.3,1.6-0.6,2.4c-0.1,0.3,0.1,0.6,0.1,1c0.1,0,0.1,0,0.2,0c-0.4,0.7-0.8,1.4-1.2,2.1c0.5,0.7,0.5,1.6,0.3,2.6
			c-0.1,1-0.5,2.3,0.7,3.1c-1,0-1.9,0-2.9,0c-0.1,0.9-0.1,1.6-0.1,2.3c-0.1,1,0.3,1.3,1.2,1.4c0.3,0,0.6,0.1,1,0.1
			c-0.3,3.1-0.5,5.9-0.7,8.9c-0.1,1.1,0.1,2.2,0.1,3.3c0,2.3-0.1,4.6-0.1,6.8c0,0.5,0.1,0.9,0.1,1.3c0.2,1.6,0.4,3.1,0.6,4.7
			c0.2,1.5,0.3,2.9,0.4,4.4c0.1,0.6,0,1.2,0.3,1.8c0.5,0.7,0.5,1.5,0.7,2.3c0.4,1.4,0.8,2.7,1.2,4c0.1,0.2,0.1,0.5,0.1,0.7
			c0.1,1,0.1,2,0.3,2.9c0.2,1,0.6,1.9,0.8,2.9c0.2,0.9,0.6,1.7,0.3,2.7c-0.1,0.5,0.1,1,0.1,1.5c0.1,0.5,0,1.1,0.1,1.6
			c0.1,0.7,0,1.4,0.3,1.9c0.2,0.5,0.3,0.9,0.5,1.3c0.3,1.2,0.8,2.3,0.7,3.6c0,0.1,0.1,0.2,0.1,0.3c0.7,1,0.5,2,0.6,3.1
			c0.1,1.1,0.1,2.3,0.7,3.4c0.3,0.5,0.5,1.4,0.3,2c-0.1,0.5,0,1,0.2,1.4c0.3,0.5,0.5,1.1,0.5,1.7c0,0.7,0.3,1.5,0.7,2
			c0.6,0.8,0.8,1.6,1,2.5c0.2,0.6,0.4,1.3,0.8,1.8c0.8,0.8,1.1,1.9,1.5,2.9c0.4,1.1,0.6,2.2,1.6,2.9c0.5,0.3,1,0.7,1.1,1.4
			c0.1,0.2,0.3,0.3,0.5,0.5c0.5,0.3,1.9,2.1,2.1,2.7c0.5,1.2,1.4,2,2.4,2.7c0.8,0.5,1.3,0.9,1.7,1.6c0.3,0.7,0.7,1.4,1.4,1.6
			c1.1,0.3,1.1,1.8,2.3,2c0.1,0,0.1,0.2,0.1,0.3c0.1,0.5,0.3,0.9,0.5,1.4c0.6,0,1.2,0,1.8,0c-0.1-0.6-0.1-1.1-0.2-1.6
			c0.9,0.1,1.7,0.3,2.5,0.4c-0.2,0.3-0.4,0.5-0.8,1c0.6-0.2,1-0.3,1.2-0.5c0.2-0.5,0.3-0.9,0.5-1.4c1.4,0.2,2-0.8,2.7-1.5
			c0.6-0.6,1-0.5,1.5-0.1c-0.3,0.8-0.6,1.6-1,2.4c0.6,0.4,1.1,0.8,1.7,1.2c0.1-0.1,0.3-0.2,0.3-0.3c0.1-0.1,0.3-0.1,0.5-0.2
			c0.7,1.4,1.1,1.6,2.2,1.5c0.8,1.4,1.6,2.7,2.4,4c1.1,0.3,1.8-0.4,2.5-1.2c0.2,0.5,0.3,0.7,0.4,1c0.1,0.6,0.5,1,1.1,1.1
			c0.6,0.1,0.6-0.5,0.7-0.9c0.1-0.5,0.4-0.6,0.7-0.6c0.3,0.5,0.6,0.8,1,1.3c0.5-0.7,1-1.2,1.3-1.8c0.5,0.2,0.8,0.3,1.2,0.5
			c0.1,0.4,0.3,0.8,0.4,1.2c0.3-0.3,0.5-0.5,0.5-0.6c0.5,0.7,1,1.3,1.5,2c-0.2,0.5-1,1-0.1,1.8c0.3-0.3,0.6-0.7,0.9-0.8
			c0.3-0.2,0.8-0.3,1.3-0.5c-0.1-0.8-0.3-1.7-0.4-2.7c0.3,0.1,0.6,0.1,0.6,0.1c0.2,0.5,0.7,0.5,0.8,0.2c0.3-0.5,0.6-0.2,0.8-0.1
			c0.5,0.2,1,0.5,1.5,0.7c0.5-0.2,0.5-0.5,0.3-1c-0.3-0.4-0.2-0.7,0.3-0.9c0.2,0.4,0.3,0.7,0.5,1.1c0.3-0.3,0.6-0.7,0.9-0.8
			c1-0.2,2.1-0.3,3.1-0.4c0-0.1-0.1-0.2-0.1-0.5c0.7,0,1.4,0,2,0c0.1-0.2,0.3-0.5,0.5-0.7c0.2-0.2,0.5-0.3,0.7-0.5
			c0.1-0.1,0.1-0.2,0.2-0.5c-0.5,0.1-0.8,0.1-1.2,0.2c0.5-0.8,0.6-1.6,0.5-2.6c0.6,0.7,1.6,0.8,2,1.7c0.1,0.1,0.3,0.3,0.4,0.3
			c0.6,0.1,1.3,0.2,2.1,0.3c-0.2-0.8-0.4-1.4-0.5-2c-0.1-0.4-0.1-1.1,0-1.2c1-0.4,0.8-1.2,1-2c1.1,0.2,1.9,0.7,2,1.3
			c0,0.7,0.5,0.9,1,1.1c0.5,0.2,0.8,0.4,1.2,0.7c0.3,0.2,0.6,0.6,1,0.7c0.3,0.1,0.7-0.1,1.1-0.2c0.3,0.4,0.6,0.8,0.8,1.1
			c0.5-0.5,1-0.7,1.4-1.1c0.3-0.3,0.5-0.7,0.8-0.7c0.3-0.1,0.7,0.3,1,0.5c0.3-0.3,0.5-0.7,0.8-1.1c-0.3-0.1-0.6-0.3-0.8-0.5
			c0.1-0.1,0.1-0.1,0.1-0.2c0.7,0.2,1.4,0.3,2,0.5c0.2-0.3,0.3-0.6,0.5-0.8c0.1,0,0.1,0.1,0.2,0.1c0,0.3,0,0.7,0,1.1
			c-0.2,0-0.4,0.1-0.6,0.1c-0.2,0.1-0.3,0.1-0.5,0.1c-0.2,1.2-0.2,1.2,1.2,1.9c1.2-1.5,0-3-0.1-4.5c1-0.1,1.1-0.1,1.4,0.9
			c0.5,1.4,1.7,2.3,3.2,2.3c0.3,0,0.6,0.1,0.8,0.3c0.3,0.1,0.6,0.3,0.8,0.5c0.3-0.4,0.5-0.7,0.8-1.1c0.5,0.6,0.8,1.1,1.3,1.8
			c0.2-1.4,1.7-1.6,1.6-2.7c0.6-0.3,1.2-0.5,1.6-0.6c0.2-0.6,0.2-1.1,0.5-1.5c0.8-1.2,0.8-1.5-0.2-2.4c-0.6-0.6-1-1.2-1.1-2.2
			c0.6,0.4,1.2,0.8,1.7,1c0.6,0.2,0.6,0.5,0.6,1c-0.3-0.1-0.5-0.1-0.8-0.3c0.5,0.7,0.5,0.7,0.9,0.3c0.3,0.2,0.5,0.3,0.7,0.6
			c0.2,0.2,0.1,0.6,0.3,0.7c0.5,0.3,1,0.6,1.6,0.9c0.2-0.3,0.4-0.7,0.6-1.1c-0.3-0.1-0.6-0.1-0.9-0.1c0.5-0.8,1-1.2,1.8-1.2
			c0.8,0.7,1.5,1.3,2.3,2c0.3-1.1,0.5-2,0.8-3.1c0.4-0.1,0.8-0.1,1.3-0.2c0.3-1.1,0.6-2.3,1.5-3.5c0.1,0.7,0.1,1,0.1,1.5
			c0.3-0.2,0.5-0.3,0.5-0.4c0-0.5,0.3-0.7,0.6-0.9c1-0.4,1-1.5,1.7-2.2c-0.3-1.1,0.6-0.7,1-0.8c0.4-0.9,0.6-1.9,1.1-2.5
			c0.7-0.9,1-2,1.7-3c0.2-0.2,0.3-0.6,0.3-0.8c-0.2-1,0.4-1.6,0.8-2.3c0.4-0.6,1-1,0.8-1.9c0-0.1,0.1-0.3,0.1-0.3
			c0.6-0.5,0.7-1.1,0.6-1.8c0-0.2,0.1-0.5,0.2-0.6c1-1.1,1.2-2.6,1.5-4c0.2-1.2,0.6-2.5,0.8-3.7c0.4-1.9,0.8-3.7,1.1-5.5
			c0.5-3,0.6-6.1,1.5-8.9c0.1-0.2,0.1-0.5,0.1-0.7c0.5-3.4,0.8-6.9,1.4-10.3c0.3-1.9,0.8-3.6,1-5.4c0.5-3,0.8-6.1,1.1-9.2
			c0.2-1.6,0.1-3.2,0.2-4.8c0-0.3-0.1-0.5-0.3-1c-0.2,0.3-0.4,0.4-0.5,0.5c-0.7,2.7-1.8,5.2-3.2,7.6c-1.6,2.8-3.7,5-6.1,7
			c-2,1.6-4.2,2.9-6.6,3.8c-2.8,1.1-5.7,1.7-8.7,1.7c-3.2,0-6.2-0.8-9.1-2c-1.4-0.5-2.5-1.5-3.9-2.1c-2.1-1.1-3.6-2.8-5-4.5
			c-1.5-1.9-2.6-4-3.6-6.2c-1.1-2.3-1.9-4.6-2.4-7.1c-0.5-2.2-0.8-4.4-1-6.6c-0.1-1.2-0.2-2.4,0.5-3.6c0.6-1.1,1.5-2.1,1.1-3.5
			c0-0.1,0-0.1,0.1-0.1c1.1-0.9,1.3-2.7,2.9-3.1c0.2-0.1,0.3-0.3,0.4-0.5c0.2-0.8,0.7-1.1,1.4-1.4c-0.5-1.6,1.2-1.9,1.5-3.1
			c-0.3-1.4-0.6-2.9-1-4.6c1.2,1,1.2,2.3,1.6,3.2c1.3,0.1,2.1-0.7,2.6-1.5c0.5-0.8,0.5-2,1.8-2.1c-0.1-0.9,0.7-0.6,1.1-0.9
			c0.1-0.1,0.1,0.1,0.2,0.1c-0.1,0.2-0.3,0.5-0.5,0.7c0.9-0.1,1.9,0.1,2.4-0.2c1-0.7,2.1-0.6,3.1-0.7c1.7-0.2,3.5-0.5,5.1-1
			c0.7-0.2,1.4-0.3,2.1-0.2c0.7,0.1,1.5-0.1,2.3-0.4c0.7-0.3,1.6-0.2,2.4-0.1c0.5,0.1,1,0.2,1.4-0.1c0.9-0.6,1.7-0.3,2.5,0.1
			c0.1,0.1,0.3,0.2,0.5,0.2c1-0.2,1.9,0.1,2.8,0.3c-0.1-0.3-0.1-0.5-0.1-0.8c1.2,0.2,2.7,1.1,4,2.4c-0.5,0.1-0.9,0.1-1.5,0.2
			c0.2,0.5,0.3,0.8,0.5,1.1c-0.2,0.3-0.4,0.5-0.6,0.7c0.5,0.3,1.2,0.1,1.1,1.1c-0.8-0.2-1.6-0.4-2.4-0.5c-0.7-0.1-1.4-0.5-2-0.3
			c-1.8,0.2-3.5,0.5-5.2,0.9c-0.8,0.2-1.5,0.4-2.3,0.4c-0.5,0-1,0.1-1.4,0.2C141.5,138.8,140.9,138.9,140.3,139.1
			c-0.3,0.3-0.6,0.5-1,0.8C139.8,139.7,140.5,139.8,140.3,139.1z M163.1,157c0.1-1.5-0.5-4.2-1.7-6.6c-2.1-4.3-5.7-6.9-10.2-8.2
			c-2.5-0.7-5-1.3-7.6-1.4c-1.8-0.1-3.7-0.2-5.4,0.1c-2.4,0.4-5,0.1-7.2,1.4c-1.5,0.1-2.9,0.7-4.3,1.2c-2.8,1.1-5,2.8-6.8,5
			c-0.7,0.9-1.4,1.8-1.9,2.8c-1.7,3.5-2.1,7.1-1.5,10.9c0.7,4.1,2,7.9,4.4,11.4c2.8,4.2,6.6,6.8,11.1,8.4c3.5,1.2,7.2,1.4,10.9,1
			c1.4-0.2,2.5-0.5,3.7-1c2-0.8,4-1.8,5.7-3.1c2.1-1.6,4.1-3.4,5.6-5.7C161.1,168.8,163,163.8,163.1,157z M64.5,141.8
			c-0.1-0.1-0.1-0.2-0.2-0.3c-1,0.2-1.9,0.5-2.9,0.6c-2.1,0.3-4,1.2-5.9,2.1c-0.6,0.3-1.2,0.7-1.8,1.1c-2.8,2.3-4.6,5.1-5.7,8.5
			c-0.5,1.5-0.7,3-0.5,4.6c0.1,1.1,0.2,2.1,0.3,3.2c0.2,3.3,1.2,6.3,2.8,9.1c0.7,1.3,1.6,2.6,2.5,3.8c3.1,4.4,7.3,7.2,12.3,8.9
			c2.2,0.7,4.5,0.9,6.8,1c1.2,0.1,2.2,0.2,3.4-0.2c2.5-0.9,5-1.9,7.4-3.2c3.2-1.8,5.6-4.4,7.5-7.5c1.6-2.7,2.9-5.5,3.6-8.5
			c0.5-2.3,0.9-4.6,0.6-7.1c-0.1-0.8-0.3-1.6-0.5-2.4c-0.3-1.6-0.8-3.2-1.8-4.6c-1.5-2.4-3.6-4.2-5.9-5.8c-0.4-0.3-0.9-0.3-1.4-0.5
			c0.9,1,1.9,1.7,2.8,2.5c1,0.8,1.8,1.8,2.8,2.7c-0.5,0.1-1-0.7-1.2,0.3c0.7-0.1,0.7,0.7,1.1,1c0.6,0.4,0.6,0.7,0.6,1.4
			c-0.3-0.1-0.7-0.3-0.8-0.3c-0.5,0.5-1.1,0.3-1.7,0.4c-0.3,0.1-0.8,0.3-0.8,0.7c-0.3,0.7-0.8,1-1.4,1.1c-0.3,0.1-0.6,0.3-0.9,0.5
			c-1.1-0.5-0.3-1.5-0.6-2.1c-0.5-0.1-1-0.1-1.3-0.4s-0.3-0.8-0.5-1.2c-0.5-0.2-1-0.4-1.5-0.6c0.5-1.1,0.5-1.2-0.1-1.5
			c-0.6-0.3-1.4-0.3-2,0c0-0.7-0.4-0.9-1-0.9c0,0.2-0.1,0.4-0.1,0.5c1,2,0.3,3.8-0.7,5.4c-0.5,0.8-1.3,1.4-2.2,1.2
			c-1.2-0.2-2.2-0.1-3.2,0.5c-0.7,0.4-1.2-0.1-1.8-0.1c-0.1,0-0.3-0.3-0.4-0.3c-1.4,0.4-1.6-0.7-2.3-1.4c0.7-1.1,0.7-1.4,0-2.4
			c-0.2-0.2-0.3-0.5-0.3-0.8c-0.2-0.5-0.3-1-0.5-1.5c-0.3-0.8-0.6-1-1.4-0.7c-0.8,0.3-1.7,0.5-2.4,1c-0.7,0.5-1.6,0.3-2.1,1.2
			c-0.1,0.1-0.4,0-0.6,0c-0.2,0-0.5-0.1-0.6,0c-0.6,1-1.2,0.2-1.9,0.1c1.5-0.1,1.2-1.4,1.4-2.3c0.7-0.3,0.8-0.4,1.5-1.2
			c0.1-0.2,0.3-0.3,0.5-0.3c1.4-0.3,2.8-0.5,4.2-0.7c0.4-0.1,0.8,0.1,1.1-0.1c1-0.7,2.1-0.5,3.1-0.8c1.1-0.3,1.2-0.3,0.5-1.4
			c-0.4,0.1-0.8,0.3-1.2,0.4c0-0.5,0-0.9,0-1.3c-1.9,0.5-3.6,0.8-5.3-0.5C64.3,142.3,64.4,142,64.5,141.8z M166.1,145
			c0.6,1.2,1,2.3,1.4,3.2c0.2,0.5,0.5,0.7,1,0.7c1.2-0.1,2.3-0.3,3.5-0.5c1.5-0.2,2.1-1,1.6-2.5c-0.2-0.7-0.1-1.2,0.4-1.8
			c0.3-0.3,0.4-0.6,0.6-1c-0.8-0.2-1.1,0.4-1.4,0.7c-0.3,0.4-0.6,0.6-1.2,0.7c-1.5,0.5-3,0.4-4.5,0.4C167.1,145,166.6,145,166.1,145
			z M167.3,61.8c-0.3,1,0.1,1.7,0.9,2.3c0.2,0.2,0.5,0.4,0.6,0.6c0.6,0.8,1.2,1.6,1.9,2.4c0.2,0.2,0.6,0.3,1,0.5
			c-0.1,0.3-0.2,0.5-0.3,0.8c1.2,0.8,2.1,1.9,3.7,2.7c-0.3-0.7-0.5-1.1-0.6-1.5c-0.3-0.7-0.9-1.3-1-2c-0.1-1-0.7-1.4-1.5-1.7
			c0.5-0.7-0.1-1-0.6-1.3c-0.4-0.3-0.8-0.5-1.1-0.8c-0.6-0.7-1-1.4-2-1.4C168,62.4,167.7,62,167.3,61.8z M45.9,20.7
			c1,0.4,1,0.4,2-0.5c0.4,0.1,0.8,0.3,1.2,0.3c1-0.1,1.8-0.5,2.8-0.3c0.1,0,0.3-0.2,0.5-0.3c0.6-0.4,1.2-0.8,1.9-0.7
			c0.2,0,0.3-0.2,0.6-0.3c-0.3-0.4-0.5-0.7-0.8-1.1c0.5-0.1,0.8,0.1,1.2-0.1c0.2-0.1,0.6-0.3,0.6-0.5c0-0.2-0.2-0.6-0.5-0.7
			c-0.5-0.2-0.9-0.2-1.4,0.2c-0.5,0.4-0.9,0.8-1.5,1c-1.4,0.3-2.6,0.7-3.5,1.7C48.1,18.3,46.8,18.9,45.9,20.7z M61.5,123.2
			c-0.1-0.3-0.1-0.7-0.1-1c-0.1-0.8-0.3-1.6-0.3-2.3c-0.1-2.5-0.1-5-0.1-7.5c0-0.5-0.1-0.9-0.2-1.4c-0.1,0-0.2,0-0.3,0
			c-0.1,0.7-0.1,1.5-0.2,2.3c-0.1,0.7,0.4,1.6-0.5,2.3c-0.3-1.9,0.3-3.8-0.5-5.7c-0.2,0.2-0.3,0.3-0.3,0.4c0,1.6,0,3.3,0.1,5
			c0.1,0.8,0.6,1.2,1.5,1.1c0,0.5,0,1,0,1.4c0,1.2-0.1,2.4-0.1,3.7C60.4,122.1,60.6,122.8,61.5,123.2z M46.8,22.6
			c0.5,0.3,1,0.7,1.6,0.6c0.5-0.1,1.1-0.1,1.6,0.4c0.5,0.4,1.2,0.1,1.4-0.3c0.3-0.8,0.8-1.2,1.4-1.6c0.1-0.1,0.2-0.3,0.3-0.8
			c-0.6,0.2-0.8,0.3-1.1,0.3c-0.3,0.1-0.6,0.3-0.8,0.2c-0.7-0.5-1.5-0.2-2.1,0.1C48.3,21.7,47.2,21.6,46.8,22.6z M11.2,124.9
			c-0.1-0.1-0.2-0.1-0.3-0.1c-0.1,0.2-0.3,0.5-0.4,0.7c-0.6-0.5-0.6-0.1-0.6,0.4c0,1.2-0.7,2.3-0.1,3.5c0.1,0.1,0.1,0.4,0,0.5
			c-0.7,1-0.2,1.9,0.2,2.8c1-0.8,1.2-1.8,1.2-2.8C11.2,128.2,11.2,126.6,11.2,124.9z M56.8,16.4c-0.3,1.6-0.2,2.1,0.7,2.3
			c1,0.1,1.5-0.5,1.7-2.3C58.5,16.3,57.7,15.9,56.8,16.4z M129,141.3c1.1,0.5,2,0.3,2.9-0.1c0.6-0.3,1.3-0.5,1.9-0.7
			c0.7-0.2,1.5-0.5,2.2-0.7c-0.1-0.1-0.1-0.2-0.1-0.3C133.7,140.2,131.3,139.8,129,141.3z M62.4,140.7c2.7,0.2,5.3-0.1,7.9-0.8
			C67.6,140,64.9,139.7,62.4,140.7z M36.6,146.7c-0.8-1-4.2-2-6.2-1.9C32.4,145.8,34.4,146.7,36.6,146.7z M178.9,149.7
			c-0.1-1.6-0.3-1.9-1.5-1.9C177.7,148.6,177.8,149.6,178.9,149.7z M85.8,268.9c0.3-0.4,0.5-0.7,0.6-1.1c-1.1-0.3-1.1-0.3-2,0.5
			C84.9,268.4,85.3,268.6,85.8,268.9z M65.3,132.6c-0.3,1.1-0.3,1.1,0.8,1.6C66.5,133.3,66.4,133.1,65.3,132.6z M54.8,14.7
			c0-0.1-0.1-0.2-0.1-0.3c-0.7,0-1.5-0.4-2.1,0.7C53.4,14.9,54.1,14.8,54.8,14.7z M65.3,129.3c-0.6-0.2-0.8-0.1-0.9,0.4
			c-0.1,0.5,0,1,0.7,1.1C65.2,130.3,65.2,129.8,65.3,129.3z M138.4,92.5c-0.5,0.1-1,0.1-0.8,0.7c0.1,0.2,0.5,0.5,0.6,0.5
			C138.8,93.6,138.6,93.1,138.4,92.5z M81.5,11.8c-0.8-0.7-1.6-0.6-2.4-0.3C79.9,12.3,80.6,11.7,81.5,11.8z M80.3,142.6
			c0,0.1-0.1,0.2-0.1,0.3c0.6,0.1,1.1,0.7,1.9,0.3C81.5,142.9,81,142.7,80.3,142.6z M11.3,133.3c-1.1,0.5-1.1,0.5-0.6,1.1
			C10.9,134,11.1,133.7,11.3,133.3z M150,88.9c-0.3-0.8-0.3-0.8-1.2-0.5C149.2,88.7,149.5,88.8,150,88.9z M176.7,143.2
			c0.1-0.1,0.3-0.1,0.4-0.1c-0.1-0.5-0.3-1-0.4-1.5c-0.1,0.1-0.2,0.1-0.3,0.1C176.5,142.3,176.7,142.8,176.7,143.2z M72.5,148
			c-0.2,0.2-0.4,0.3-0.5,0.5c0,0.1,0.2,0.5,0.3,0.5c0.2-0.1,0.4-0.2,0.6-0.3C72.9,148.4,72.8,148.3,72.5,148z M106.1,245.4
			c-0.1-0.5-0.2-0.7-0.3-1.2C105.2,244.8,105.4,245.1,106.1,245.4z M53.9,238.9c0.1,0,0.2,0,0.3,0c-0.1-0.3-0.1-0.5-0.1-0.8
			c-0.1,0-0.2,0.1-0.3,0.1C53.9,238.4,53.9,238.7,53.9,238.9z M83.8,144.1c0-0.1-0.1-0.2-0.1-0.3c-0.3,0.1-0.5,0.1-0.7,0.2
			c0,0.1,0.1,0.2,0.1,0.3C83.3,144.1,83.6,144.1,83.8,144.1z M66.7,135.1c0.2-0.3,0.3-0.4,0.4-0.5c-0.1-0.1-0.2-0.2-0.3-0.2
			c-0.1,0.1-0.3,0.1-0.3,0.3C66.5,134.8,66.6,134.9,66.7,135.1z M46.6,23.7c-0.1,0.2-0.2,0.3-0.3,0.3c0.1,0.1,0.3,0.2,0.5,0.3
			c0.1-0.1,0.2-0.2,0.2-0.3C46.9,24,46.7,23.8,46.6,23.7z M54.2,119.4c0.5-0.4,0.5-0.7,0-1.1C54.2,118.6,54.2,118.9,54.2,119.4z"/>
		<path class="st0" d="M119.5,330.2c0.6,0.4,0.9,0.7,1.3,0.9c0.3-0.3,0.6-0.6,1-0.8c0.4-0.3,0.7-0.5,1.3-0.3
			c0.4,0.1,0.9-0.2,1.4-0.3c1.2-0.5,2.4-0.9,3.9-1.4c-0.2,0.5-0.3,0.7-0.3,0.9c0.5,0.5,1.1,0.4,1.8,0.1c-0.3-0.3-0.5-0.6-0.7-0.8
			c0.1-0.1,0.1-0.1,0.2-0.1c1-0.1,1.9-0.2,2.8-0.5c0.5-0.1,0.6-0.7,1.3-0.7c0.5,0,1-0.1,1.5,0.1c0.6,0.2,1.2,0.1,1.6-0.7
			c0.6-1,1.7-1.1,2.7-1.3c0.6-0.1,1.3,0,2.1,0c0.1-1.1,0.8-1.5,1.7-1.9c0.8-0.3,1.6-0.7,2.4-1.1c0.6-0.3,1.1-0.2,1.6,0.1
			c1-0.7,1.5-1.9,2.8-2.2c0.6-1.2,2.1-0.3,2.9-1.3c-0.3-0.1-0.5-0.1-0.7-0.1c0-0.1,0-0.2,0.1-0.2c0.7-0.3,1.5-0.9,2.2-0.9
			c0.6,0,0.2-0.6,0.5-0.6s0.6-0.2,0.8-0.3c0.3-0.1,0.7-0.2,1.2-0.4c0.1-0.3,0-0.7,0.7-1c0.8-0.3,1.5-1.1,2.3-1.6
			c0.3-0.3,0.7-0.5,1.1-0.7c1.2-1,2.6-1.8,3.5-3c1.2-1.6,3.2-2.6,4.1-4.5c0.1-0.1,0.2-0.3,0.3-0.4c1.2-0.5,1.3-1.5,1.6-2.6
			c0.3-1.2,1.1-2.3,1.7-3.4c0.5-0.7,0.7-1.5,0.8-2.4c0-0.3-0.2-0.8,0.5-0.7c-0.1-0.3,0-0.6-0.1-0.9c-0.2-0.7,0.1-1.6-0.7-1.9
			c-0.2-1.7-0.4-3.3-0.6-4.9c-0.1-1-0.3-2-0.5-3c-0.1-0.3-0.1-0.6-0.3-0.7c-2-1.8-3.6-3.9-5.9-5.3c-0.8-0.5-1.5-1.1-2.2-1.6
			c-0.3-0.2-0.5-0.5-0.8-0.9c2-0.2,3.7,0.3,5.4,0.7c1.8,0.3,3.3,1.1,4.8,2.4c-0.1,0.3-0.2,0.7-0.4,1.1c0.6,0.3,1.1,0.6,1.7,0.8
			c-0.2-1,1-0.7,1.7-1.1c-0.5-0.3-0.7-0.5-1-0.7c0.1-0.1,0.1-0.1,0.2-0.1c1.4,0.1,2.6-0.3,4-0.5c0.5-0.1,1.2-0.1,1.6,0.1
			c0.9,0.6,1.7,0.7,2.7,0.3c0.8,0.7,1,1.6,1.1,2.5c0.1,1.1,0.6,1.9,1.4,2.4c2.9,2.5,3.3,5.8,2.5,9.3c-0.5,2.1-1.4,4.1-2.3,6.2
			c-0.3,0.7-0.7,1.4-1.2,2c-1,1.1-1.5,2.5-2.7,3.6c-1,0.9-1.8,2-2.6,3.1c-0.8,1-1.6,2.1-2.8,2.7c-0.1,0.1-0.2,0.1-0.2,0.1
			c-0.8,1.4-2.1,2-3.2,3.1c-0.8,0.8-2,1.4-3,2c-0.3,0.2-0.6,0.3-0.8,0.5c-1,1.2-2.4,2-3.6,2.9c-1,0.7-1.9,1.5-3.1,1.9
			c-0.3,0.1-0.5,0.1-0.7,0.3c-1,0.7-1.9,1.4-3,2c-1.1,0.7-2.3,1.1-3.3,1.8s-2.4,0.8-3.3,1.8c-0.2,0.3-0.7,0.3-1.1,0.4
			c-0.6,0.2-1.4,0.3-1.9,0.7c-1.2,0.7-2.3,1.5-3.7,1.5c-0.5,0-0.9,0.3-1.4,0.5c-0.6,0.2-1.3,0.3-1.9,0.6c-1.1,0.6-2.3,0.7-3.5,0.9
			c-1.2,0.2-2.4,0.7-3.6,1c-0.3,0.1-0.7-0.1-1-0.2c-0.6-0.3-1.1-0.5-1.5,0.3c-0.2,0.5-0.7,0.7-1.4,0.6c-0.4-0.1-0.8,0.1-1.2,0.1
			c-1.7,0.2-3.4,0.5-5.1,0.7c-0.3,0.1-0.6,0-0.9,0.1c-1.2,0.4-2.4,0.3-3.7,0.4c-2.2,0.1-4.4,0.3-6.6,0.5c-0.2,0-0.5,0-0.6-0.1
			c-0.8-0.3-1.5-0.4-2.2,0.2c-0.3,0.3-0.7,0.2-1.1-0.1c-0.2-0.2-0.6-0.4-0.8-0.3c-1.2,0.6-2.4-0.1-3.6-0.3c-1.2-0.2-2.3-0.3-3.5,0.1
			c-0.2,0.1-0.4,0.1-0.5-0.1c-1.7-0.9-3.7-0.8-5.5-1.1c-1.2-0.2-2.5-0.2-3.5-1c-0.3-0.2-0.8-0.3-1.1-0.2c-0.9,0.3-1.8,0.2-2.6-0.2
			c-0.4-0.2-0.8-0.2-1.3-0.2c-0.6-0.1-1.1-0.1-1.6-0.6c-0.3-0.3-1.1-0.2-1.7-0.3c-0.3-0.1-0.8,0-1-0.2c-0.5-0.5-0.9-0.6-1.5-0.5
			c-0.6,0-1.2,0-1.7-0.5c-0.3-0.2-0.7-0.3-1.1-0.3c-0.7-0.1-1.5,0.1-1.9-0.7c-0.1-0.1-0.4-0.2-0.6-0.2c-1.4-0.3-2.8-0.5-4.2-0.8
			c-0.3-0.1-0.5-0.2-0.7-0.3c-0.3-0.2-0.7-0.3-1-0.5c-1.1-0.3-2.3-0.5-3.3-0.9c-1-0.4-1.9-0.8-3.1-0.8c-0.2,0-0.4-0.3-0.6-0.5
			c-0.3-0.2-0.6-0.4-1-0.3c-1.2,0.1-2-0.5-2.9-1.1c-0.8-0.5-1.7-0.8-2.6-1.2c-1.1-0.5-2.2-1-3.3-1.4c-1.8-0.5-3.3-1.5-4.8-2.5
			c-1.2-0.9-2.6-1.6-3.9-2.4c-0.9-0.6-1.7-1.3-2.6-1.9c-2.3-1.5-3.9-3.4-5.6-5.4c-0.6-0.7-1.2-1.5-1.9-2.3c-0.9-1.1-1.4-2.4-1.9-3.7
			c-0.6-1.4-1.4-2.7-1.9-4.2c-0.4-1.1-0.6-2.4-0.6-3.6c-0.1-2.3,0.5-4.4,1.2-6.5c1.2,0.1,2.4,0.2,3.6-0.3c0.4-0.2,0.8-0.5,1.2-0.7
			c1.6-1.1,3.1-2.3,4.8-3.2c1-0.6,2.3-0.7,3.7-1.2c-0.3,0.6-0.3,0.9-0.5,1.2c-1,1.5-2,3.1-3.1,4.5c-1,1.2-1.1,2.6-0.7,4
			c0.5,1.9,1.2,3.6,1.8,5.5c0.5,1.5,1.4,2.9,1.6,4.4c0.3,1.9,1.2,3.2,2.5,4.5c0.2,0.2,0.3,0.5,0.3,0.7c0.3,0.7,0.5,1.5,1.5,1.5
			c0.2,0,0.5,0.3,0.7,0.6c0.7,0.8,1.5,1.6,2.1,2.5s1.8,1.5,2.7,2.1c0.8,0.7,1.7,1.4,2.5,2c0.1,0.1,0.1,0.2,0.2,0.2
			c1.3,0,1.8,1.2,2.8,1.7c1,0.5,1.9,1.2,2.8,1.8c1.9,1,3.8,1.8,5.7,2.7c0.7,0.3,1.5,0.6,2.3,1c2,1.2,4.4,1.5,6.4,2.3
			c1,0.4,2,0.5,3.1,0.6c1,0.1,1.9,0.5,2.8,1c0.2,0.1,0.4,0.1,0.6,0.2c0.6,0.1,1.3,0.1,1.9,0.1c0.6,0.1,1.2,0.2,1.5,1
			c0.1,0.3,0.6,0.5,1.1,1c0.1-0.6,0.1-0.9,0.1-1.2c0.3,0,0.6-0.1,0.8-0.1c1.4,0.5,3,0.5,4.4,0.7c0.8,0.1,1.5,0,2.1,0.7
			c0.2,0.2,0.9,0.3,1.2,0.1c0.7-0.4,1.1,0,1.7,0.1c0,0.2,0,0.3,0,0.5s-0.1,0.4,0,0.5c0.1,0.1,0.5,0.1,0.5,0.1
			c0.8-1.5,2.2-0.8,3.3-0.9c1.7-0.2,3.4-0.2,5.1-0.3c0.7-0.1,1.5-0.1,2.1,0c0.4,0.1,0.7,0.4,1.1,0.7c0.5,0.2,1-0.5,1.5,0.1
			c0.1,0.2,0.9-0.1,1.3-0.3c0.8-0.4,1.5-0.9,2.5-0.6c0.3,0.1,0.7-0.1,1-0.1c0.6-0.1,1.2-0.2,1.9-0.3
			C118.7,330.3,119.2,330.2,119.5,330.2z M174.8,306.1c0.5-0.9,0.5-0.9-0.5-1.8C174.6,305,174.7,305.5,174.8,306.1z M174.5,295.1
			c-0.1,0-0.3,0-0.4,0c0.1,0.5-0.3,0.9,0.3,1.6C174.4,296,174.5,295.6,174.5,295.1z M173.1,290.4c-0.1,0-0.2,0.1-0.3,0.1
			c0.1,0.3,0.1,0.7,0.2,1c0.1,0,0.1,0,0.2-0.1C173.1,291,173.1,290.8,173.1,290.4z M34.6,290.6c-0.7,0.5-0.3,0.7-0.1,1.2
			C34.6,291.3,34.6,291,34.6,290.6z M177.1,291.9c-0.1-0.1-0.2-0.2-0.3-0.3c-0.1,0.1-0.2,0.3-0.2,0.4c0,0.1,0.2,0.2,0.3,0.2
			C177,292.2,177,292.1,177.1,291.9z M156.7,317.3c0.1-0.1,0.1-0.2,0.1-0.3c-0.2-0.1-0.3-0.1-0.5-0.2c-0.1,0.1-0.1,0.1-0.1,0.2
			C156.5,317.1,156.6,317.3,156.7,317.3z"/>
		<path class="st0" d="M172.5,280.5c0.3-0.2,0.7-0.3,1-0.5c0.1,0.1,0.1,0.2,0.1,0.3c-0.3,0.2-0.6,0.4-1,0.6
			C172.6,280.7,172.6,280.7,172.5,280.5z"/>
		<path class="st1" d="M11.3,133.3c-0.2,0.3-0.4,0.7-0.6,1.1"/>
		<path class="st0" d="M118.8,203.5c0.2,0.2,0.4,0.3,0.6,0.5c0.3,0.2,0.7,0.1,0.8-0.3c0.1-0.2,0.1-0.5,0.1-0.7
			c0-0.5-0.6-0.6-0.9-0.3c-0.1,0.1-0.1,0.1-0.2,0.2c-0.1,0.1-0.2,0.2-0.3,0.2c-0.6,0-1.4-0.1-1.7,0.6c-0.1,0.2-0.4,0.4-0.6,0.3
			c-0.5-0.2-0.9-0.1-1.4,0.3c-0.6,0.5-1.5,0.3-2.3,0.3c-0.3,0-0.6-0.2-0.6-0.7c0-0.5-0.5-1-1-1c-1.2-0.1-2.5-0.1-3.7,0.1
			c-0.5,0.1-0.9,0.5-1.4,0.8c-0.2,0.1-0.4,0.1-0.6,0c-1-0.9-2-1.6-3.3-1.3c-0.3,0-0.5-0.1-0.6-0.4c-0.1-0.4-0.1-0.9-0.3-1.2
			c-0.1-0.1-0.3-0.2-0.5-0.3c-0.2-0.1-0.5,0-0.6,0.2c-0.2,0.3-0.2,0.6-0.1,1c0.1,0.4-0.4,0.8-0.8,0.5c-0.4-0.3-0.8-0.6-1.2-0.9
			c-0.1,0.2-0.1,0.4-0.3,0.6c-0.9,1-1,1.2-0.5,1.9c0.3,0.4-0.1,0.9-0.6,0.7c-0.3-0.1-0.8-0.4-1.7-1c-0.2-0.1-0.5-0.1-0.7,0.2
			c0,0.1-0.1,0.2-0.1,0.2c-0.1,0.2-0.4,0.3-0.6,0.2c-0.6-0.3-1.1-0.6-1.8-0.4c-0.2,0-0.3,0-0.4-0.2c-0.3-0.3-0.5-0.6-0.8-0.9
			c-0.1-0.2-0.2-0.4-0.1-0.6c0,0,0-0.1,0.1-0.1c0.1-0.2,0.1-0.4,0-0.5c-0.2-0.2-0.4-0.5-0.6-0.7c-0.2-0.2-0.1-0.6,0.1-0.7
			c0.2-0.1,0.4-0.3,0.6-0.4c0.2-0.1,0.4-0.1,0.6,0.1c0.5,0.5,0.8,1.1,0.9,2c0.8-0.2,0.8-0.7,0.6-1.4c-0.2-0.5-0.3-1-0.5-1.5
			c0-0.1-0.1-0.2-0.3-0.3c-0.1,0-0.2-0.1-0.4-0.2c-0.3-0.1-0.4-0.4-0.3-0.7c0.1-0.3,0.2-0.5-0.3-0.8c-0.2-0.1-0.2-0.7-0.1-1
			c0.2-0.8-0.1-1.2-0.8-1.5c-0.2-0.1-0.3-0.2-0.5-0.4c-0.1-0.1-0.2-0.2-0.4-0.1c-0.4,0-0.9,0.1-1.1-0.1c-0.2-0.2-0.6-0.3-0.9-0.4
			c-0.5-0.1-0.5-0.8,0-0.9c0.6-0.2,1.1-0.6,1.7-1c1-0.7,2.3-0.9,3.6-0.7c0.2,0.1,0.5,0.1,0.6,0.1c2.8-0.2,4.8,1.5,6.8,3
			c1.1,0.8,2.1,2,3.8,1.6c0.5,0.6,1.1,0,1.6,0c0.8,0,1.7-0.2,2.5-0.1c0.5,0,0.9-0.3,1.3-0.5c1.5-1,3-2,4.5-2.9
			c0.9-0.5,1.9-1,2.8-1.2c0.8-0.2,1.6-0.2,2.4,0.3c0.8,0.5,1.8,0.9,2.7,1.2c-0.1,0.2-0.1,0.3-0.1,0.4c-0.2,0.4-0.5,0.7-0.8,1
			c-0.1,0.2-0.2,0.4,0,0.6c0,0.1,0.1,0.1,0.1,0.2c0.1,0.2,0.1,0.4,0,0.5c-0.1,0.1-0.2,0.2-0.3,0.4c-0.2,0.2-0.1,0.5,0.1,0.7
			c0.2,0.2,0.5,0.3,0.7,0.5c0.3,0.2,0.3,0.6,0,0.8c-0.9,0.7-1.6,1.5-2.1,2.8c-0.1,0.2,0,0.5,0.3,0.6c0.4,0.1,0.7,0.3,1.1,0.4
			c0.2,0.1,0.3,0.2,0.3,0.5v0.8c0.3-0.1,0.5,0,0.6-0.1c0.5-0.5,1-0.3,1.2,0.1c0.3,0.6,0.7,0.3,1.2,0.5c-0.3,0.3-0.6,0.5-0.8,0.7
			c0,0.7,0.3,0.7,0.7,0.7c0.2,0,0.4,0.1,0.5,0.3c0.1,0.2,0.1,0.5,0.2,0.7c0.1,0.3-0.1,0.5-0.3,0.6c0,0,0,0,0,0
			c-0.3,0.1-0.7-0.2-0.6-0.5c0-0.2,0.1-0.3,0.1-0.5c-0.1-0.1-0.1-0.1-0.2-0.1c-0.3,0.2-0.6,0.3-1.2,0.6c-0.5-0.1,0.1-0.6,0.1-1.1
			c-0.2,0-0.3,0.1-0.5,0.1c-0.2,0-0.4,0.2-0.4,0.4c0,0.2,0,0.5,0,0.7c-1-0.7-1-0.7-2-0.1c-0.1,0-0.1,0-0.1-0.1
			c0.1-0.2,0.1-0.3,0.2-0.6c-0.3-0.1-0.7,0.1-0.8-0.1c-0.3-0.5-0.5-1-0.7-1.5C118.7,203.6,118.8,203.6,118.8,203.5z M92.8,197.8
			c0.2-0.5,0.3-1-0.1-1.6C92.4,196.8,92.4,197.3,92.8,197.8z M96.6,202.6c-0.5-0.3-0.6-0.5-0.8-0.6c0,0-0.2,0.2-0.2,0.3
			C95.5,202.7,95.8,202.9,96.6,202.6z"/>
		<path class="st0" d="M116.3,224.9c-0.6,0.2-1,0.3-1.3,0.5c0.1,0.1,0.1,0.2,0.2,0.3c0.4,0.2,0.8,0.5,1.2,0.7
			c-0.4,0.9-1,0.1-1.2,0.1c-0.8,0.7-1.4,1.5-2.1,1.7c-0.7,0.2-1.6-0.3-2.6-0.5c0,0.1-0.2,0.2-0.3,0.4c-0.2,0.7-0.6,0.8-1.2,0.6
			c-1-0.3-1.9-0.5-2.8,0.3c-0.7-0.2-1.5,0.3-2.2-0.2c-0.3-0.2-0.8-0.2-1,0c-0.6,0.5-1.2,0.3-1.6-0.2c-0.5-0.6-1.2-0.7-1.8-0.3
			c-1.4,0.8-2.8,0.5-4.2,0.5c-0.5,0.1-0.8,0.1-1.2,0.1c-0.7-0.1-2-1.2-2.3-1.9s0.2-1.6,1-1.7c0.6-0.1,1.2-0.5,1.7-0.8
			c0.3-0.2,0.6-0.3,0.8-0.3c3.1-0.5,6.1-1.6,9.2-1.5c2.2,0.1,4.4,0.4,6.6,0.7c1.4,0.2,2.8,0.6,4.1,0.9
			C115.6,224.3,115.8,224.5,116.3,224.9z"/>
		<path class="st0" d="M76.3,216.7c0.5-0.6,0.8-1,1.1-1.5c0.1-0.1,0.1-0.2,0.1-0.2c1.2-0.2,2-1.2,3.1-1.5c2.3-0.5,4.6-0.8,6.8-1.1
			c0.8-0.1,1.7,0.2,2.5,0.3c2.3,0.1,4.5,0.3,6.7-0.2c1.5-0.3,3.2-0.2,4.9-0.3c2.8,0,5.7,0,8.5,0.1c1.4,0.1,2.8,0.2,4.1,0.6
			c-0.2,0.1-0.4,0.2-0.6,0.2c-1.5-0.1-2.9-0.1-4.4-0.1c-0.3,0-0.5,0-0.8,0.1c-2.1,0.3-4.2,0.2-6.4-0.1c-0.8-0.1-1.7-0.1-2.5,0
			c-1.2,0.1-2.4,0.3-3.7,0.4c-1.7,0.1-3.5,0.3-5.1,0.3c-1,0-2-0.2-3.1-0.2c-0.7,0-1.4,0.1-2.1,0.2c-0.5,0.1-1,0.3-1.5,0.2
			c-0.8-0.1-1.4,0.2-1.8,0.8c-0.3,0.5-0.7,0.6-1.2,0.6c-0.6,0.1-1.2,0.3-1.9,0.5C78.2,216.1,77.3,216.3,76.3,216.7z"/>
		<path class="st0" d="M114.5,213.1c0.3-0.3,0.3-0.3,0.4-0.3c1.6,0.1,3.2-0.3,4.8,0.2c0.2,0.1,0.5,0.2,0.6,0.1
			c1.2-0.4,2.4-0.1,3.6,0.1c1.6,0.2,3.2-0.3,4.7,0.1c0.7,0.2,1.5-0.4,2.1,0.6c0.5-0.5,0.7-0.9,1.1-1.4c-0.3,1.5-0.5,1.6-1.5,1.8
			c-1.1,0.2-2.2,0.3-3.3,0.3c-1.2-0.1-2.4,0.2-3.6-0.3c-1.2-0.5-2.6-0.3-3.9-0.5c-1-0.1-2.1-0.2-3.1-0.3
			C115.7,213.4,115.2,213.3,114.5,213.1z"/>
		<path class="st1" d="M38.7,147.5c0,0.2,0,0.5,0,0.9c-0.3-0.3-0.5-0.5-0.5-0.6c-0.1-0.1,0.1-0.3,0.2-0.4
			C38.5,147.4,38.6,147.5,38.7,147.5z"/>
		<path class="st0" d="M141.9,146.7c-0.9-0.2-1.7-0.8-2.5-1.2c-0.3-0.2-0.8-0.1-1.5-0.2c0.4,0.9,0.6,1.5,1,2c0.8,1.1,0.6,2-0.1,3.2
			c-0.2-0.3-0.3-0.6-0.3-0.7c-0.7,0.3,0.3,1.1-0.7,1.3c-0.4,0.1-0.7,0.8-1.2,1.4c0.3,0.5,0.7,1,1.2,1.8c-0.3,0.2-0.6,0.6-1,0.7
			c-1.4,0.2-2.8,0.2-4.1,0.3c-0.1,0-0.1-0.1-0.3-0.2c0.1-0.2,0.3-0.3,0.4-0.5c-0.1-0.1-0.2-0.2-0.2-0.1 M130.4,154
			c-0.6-0.7-1.4-1.1-1.8-2c-0.3-0.8-0.8-1.5-1.2-2.3c-0.3,0.1-0.8,0.1-1.4,0.1c-0.1-0.1-0.1-0.2-0.1-0.3c0.3-0.2,0.6-0.3,0.9-0.5
			c0.9-0.4,0.9-0.4,0.5-1.5c-0.8,0.7-1.8,1.5-2.6,2.2c-0.3,0.3-0.6,0.7-0.7,1.1c-0.5,1.2-1.2,1.8-2.5,1.6c-0.5-0.1-0.8-0.1-1.2,0.2
			c-0.6,0.4-0.8,0.4-1.7,0.3c0.9-3.3,3.2-5.4,5.8-7.3c1.9-1.3,3.9-2,5.9-2.8c0.8-0.3,1.7-0.2,2.5-0.1c0.6,0,1.2,0.1,1.7-0.3
			c0.3-0.2,0.8-0.2,1.3-0.2c0.1,0.1,0.1,0.2,0.1,0.3c-0.2,0.2-0.5,0.3-0.8,0.6c0.2,0.1,0.3,0.2,0.4,0.2c1.9-0.1,3.7,0.2,5.4,0.8
			c1.1,0.4,2.2,0.6,3.2,1.3c0.6,0.5,1.2,0.8,1.5,1.5c0.3,0.5,0.8,1,1.4,1.4c0.8,0.5,1.6,0.9,1.9,2.2c-0.3,0.2-0.7,0.5-1.2,0.8
			c-0.2-0.5-0.3-0.9-0.5-1.1c-0.3-0.3-0.6-0.7-1.1-0.5 M134.8,153.7c-0.9,0.2-1.6-0.3-2.4,0.2C133.1,154.3,133.8,154.7,134.8,153.7z
			 M131.3,153.5c0.1-0.1,0.2-0.2,0.3-0.2c-0.2-0.5-0.5-0.9-1.2-0.9C130.7,152.7,131,153.1,131.3,153.5z"/>
	</g>
	<g>
		<g>
			<path class="st0" d="M34.5,341.1c1.4-0.5,3.1-0.8,5-0.9c3.4-0.1,5.9,1.2,7.6,3.9c1.8,2.7,2.8,6.5,3,11.9
				c0.2,5.4-0.6,9.9-2.1,13.1c-1.6,3.2-4.4,5-7.9,5.1c-1.7,0.1-3.1-0.1-4.3-0.2L34.5,341.1z M38,370.5c0.6,0.2,1.5,0.2,2.4,0.2
				c5-0.2,7.6-5.4,7.2-14.4c-0.3-7.9-2.9-12.8-7.9-12.6c-1.2,0.1-2.1,0.3-2.8,0.6L38,370.5z"/>
			<path class="st0" d="M54.1,349.4l3.4,14c0.3,1.6,0.7,3.5,1,4.9h0.1c0.2-1.4,0.4-3.3,0.7-5l2.1-14.1l2.5-0.1l-2.9,17.2
				c-1.4,8.3-2.4,12.5-4,15.2c-1.1,1.9-2.3,2.7-2.8,2.9l-0.7-3.6c0.6-0.4,1.4-1.1,2-2.2c0.6-1,1.4-2.7,1.8-4.9
				c0.1-0.5,0.2-0.8,0.2-1c0-0.2-0.1-0.6-0.2-1.1l-5.7-21.8L54.1,349.4z"/>
			<path class="st0" d="M65.6,337.8l2.4-0.1l1.3,35.1l-2.4,0.1L65.6,337.8z"/>
			<path class="st0" d="M80.6,372.4l-0.3-3h-0.1c-0.7,1.9-2,3.6-3.9,3.7c-2.7,0.1-4.1-3.3-4.3-6.7c-0.2-5.8,2.5-9,7.6-9.2v-0.5
				c-0.1-2-0.5-5.5-3.2-5.4c-1.2,0.1-2.5,0.8-3.3,1.9l-0.7-2.8c1-1.3,2.6-2.2,4.2-2.3c4-0.2,5.2,4.8,5.4,9.6l0.3,8.9
				c0.1,2.1,0.2,4.1,0.5,5.7L80.6,372.4z M79.8,360.2c-2.6,0-5.5,1-5.4,5.6c0.1,2.8,1.2,4.1,2.4,4.1c1.7-0.1,2.7-2.1,3.1-4.1
				c0.1-0.5,0.1-1,0.1-1.4L79.8,360.2z"/>
			<path class="st0" d="M85.7,354.7c-0.1-2.5-0.2-4.5-0.3-6.4l2.1-0.1l0.3,4h0.1c0.6-2.3,2.1-4,4.2-4.6c1-0.3,6.3,1.6,8.2,10.1
				l5.8,13.8l-10.8,0.5l-0.5-13.8c-0.2-3.8-1.1-7-3.3-7c-1.6,0.1-2.7,2.1-3.1,4.6c-0.1,0.6-0.1,1.3-0.1,2l0.5,14.4l-2.4,0.1
				L85.7,354.7z"/>
			<path class="st0" d="M94.4,341.1c1-0.5,14.3-3.5,15.9-3.5c2.4-0.1,3.9,0.6,5.1,2.3c1,1.2,1.6,3.2,1.8,5.8c0.1,3.2-1,6.1-2.8,7.4
				v0.1c1.8,0.7,3.9,3.3,4.1,8.2c0.1,2.9-0.5,5.1-1.3,6.7c-1.2,2.1-3.2,3.2-6.2,3.3c-1.6,0.1-2.9-0.1-3.7-0.3L94.4,341.1z
				 M103.2,353.2l7.8-1.2c2.5-0.1,3.8-2.5,3.7-5.7c-0.2-3.9-1.8-5.4-4.2-5.3c-1.1,0.1-5.3,0.7-11.3,2L103.2,353.2z M109.5,368
				c0.5,0.1,1.1,0.2,2,0.1c2.4-0.1,4.6-1.8,4.5-6.7c-0.2-4.5-2.4-6.3-5-6.2l-6.2,1.4L109.5,368z"/>
			<path class="st0" d="M133.4,358.2c0.3,8.8-2.9,12.8-6.1,13c-3.6,0.1-6.4-4.5-6.7-12c-0.3-8,2.4-12.8,6.1-13
				C130.4,346,133.2,350.9,133.4,358.2z M123,358.9c0.2,5.3,2,9.1,4.4,9c2.3-0.1,3.8-4.1,3.6-9.4c-0.2-4.1-1.5-9.2-4.3-9
				C123.9,349.5,122.8,354.3,123,358.9z"/>
			<path class="st0" d="M147.6,363.3c0.1,2.5,0.2,4.6,0.3,6.5l-2.1,0.1l-0.3-3.9h-0.1c-0.6,1.9-1.9,4.5-4.2,4.6
				c-2,0.1-4.6-1.9-4.9-10.3l-0.5-14l2.4-0.1l0.5,13.2c0.2,4.5,1,7.6,3.2,7.5c1.6-0.1,2.7-2.1,3-4.1c0.1-0.6,0.2-1.4,0.1-2.2
				l-0.6-14.6l2.4-0.1L147.6,363.3z"/>
			<path class="st0" d="M151.2,353.3c-0.1-2.8-0.2-5.3-0.4-7.5l2.1-0.1l0.3,4.7h0.1c0.5-3.2,1.9-5.3,3.5-5.4c0.3,0,0.5,0.1,0.7,0.1
				l0.2,4.1c-0.2-0.1-0.5-0.1-0.8-0.1c-1.7,0.1-2.8,2.4-3,5.7c-0.1,0.6-0.1,1.3-0.1,2l0.5,12.7l-2.4,0.1L151.2,353.3z"/>
			<path class="st0" d="M170.9,345c0,1.8,0,3.7,0.1,6.6l0.5,13.9c0.2,5.5-0.3,8.9-1.5,11c-1.2,2.2-3,3-4.7,3.1
				c-1.6,0.1-3.3-0.6-4.5-1.8l0.5-3.3c0.9,1,2.3,1.8,3.9,1.8c2.4-0.1,4.1-2.5,3.9-8.5L169,365H169c-0.6,2.3-2,4.1-4,4.2
				c-3.3,0.1-5.8-4.8-6.1-11.5c-0.3-8.1,2.4-12.8,5.4-12.9c2.3-0.1,3.6,2,4.2,4h0.1v-3.6L170.9,345z M168.8,354.6
				c0-0.7-0.1-1.4-0.2-2c-0.5-2.5-1.8-4.5-3.5-4.5c-2.3,0.1-3.8,3.7-3.6,9.2c0.2,4.7,1.6,8.5,4.2,8.4c1.5-0.1,2.7-1.8,3.2-4.6
				c0.1-0.7,0.1-1.6,0.1-2.3L168.8,354.6z"/>
			<path class="st0" d="M182.9,368.5l-0.3-3h-0.1c-0.7,1.9-2,3.6-3.9,3.7c-2.7,0.1-4.1-3.3-4.3-6.7c-0.2-5.8,2.5-9,7.6-9.2v-0.5
				c-0.1-2-0.5-5.5-3.2-5.4c-1.2,0.1-2.5,0.8-3.3,1.9l-0.6-2.8c1-1.3,2.6-2.2,4.2-2.3c4-0.2,5.2,4.8,5.4,9.6l0.3,8.9
				c0.1,2.1,0.2,4.1,0.5,5.7L182.9,368.5z M182.1,356.4c-2.6,0-5.5,1-5.4,5.6c0.1,2.8,1.2,4.1,2.4,4.1c1.7-0.1,2.7-2.1,3-4.1
				c0.1-0.5,0.1-1,0.1-1.4L182.1,356.4z"/>
			<path class="st0" d="M190.2,337.6c0.1,1.5-0.5,2.7-1.4,2.7c-0.8,0.1-1.5-1.1-1.5-2.6c-0.1-1.5,0.5-2.7,1.4-2.8
				C189.5,334.9,190.2,336.1,190.2,337.6z M188.7,368.3l-0.9-23.9l2.4-0.1l0.9,23.9L188.7,368.3z"/>
			<path class="st0" d="M194.4,350.6c-0.1-2.5-0.2-4.5-0.3-6.4l2.1-0.1l0.3,4h0.1c0.6-2.3,2-4.6,4.2-4.6c1.8-0.1,4.7,1.8,5,10
				l0.5,14.3l-2.4,0.1l-0.5-13.9c-0.2-3.8-1.1-7-3.3-7c-1.6,0.1-2.7,2.1-3.1,4.6c-0.1,0.6-0.1,1.3-0.1,2l0.5,14.4l-2.4,0.1
				L194.4,350.6z"/>
		</g>
		<path class="st2" d="M119.4,340.1c50.5,2,69.1-8.5,69.1-8.5"/>
		<path class="st2" d="M156.4,378c-65.2-6.1-90.8,7.2-90.8,7.2"/>
	</g>
</g>
</svg>
